<svg width="928" height="126" viewBox="0 0 928 126" fill="none" xmlns="http://www.w3.org/2000/svg">
<path d="M721.545 106.27C651.57 102.376 580.851 105.589 510.876 107.926C441.646 110.263 372.564 114.157 303.334 115.91C236.932 117.565 169.34 117.565 104.576 107.147C78.9679 103.057 -16.0192 87.1863 22.9881 58.7549C35.1964 49.8944 53.6578 44.9287 70.4816 41.1313C87.3053 37.334 104.576 34.705 121.846 32.0761C149.836 27.7919 177.677 23.4104 205.965 20.392C239.761 16.7893 273.855 14.1604 308.098 12.4078C442.986 5.39729 580.107 8.31833 714.25 19.7104C741.495 22.0472 768.89 24.2867 795.986 27.4998C821.445 30.5182 847.351 34.4129 870.576 42.2024C881.445 45.805 891.718 50.2839 900.502 55.8339C909.584 61.5786 918.368 72.0943 904.522 77.9364C891.569 83.389 874.447 85.1416 859.559 86.6995C843.331 88.2574 827.103 89.3284 810.874 90.6916C794.051 92.0547 777.227 93.4179 760.403 94.4889C749.088 95.2678 748.642 106.855 760.403 106.27C795.986 104.518 831.42 100.428 866.557 96.631C892.611 93.8073 935.042 87.2837 927.003 64.1101C921.047 46.9734 890.675 36.1655 868.045 29.8366C842.586 22.8261 815.49 19.2235 788.244 16.4972C649.784 2.76836 510.429 -2.87898 370.48 1.40521C300.356 3.5473 230.381 8.51307 161.598 17.763C139.265 20.7814 116.784 24.1893 94.6006 27.7919C74.5014 31.1024 54.2534 34.9971 35.9409 41.3261C20.4571 46.6813 4.37775 54.8602 0.804565 66.7391C-3.95968 82.4153 13.1618 94.0021 32.9632 100.818C59.6132 109.97 90.4318 115.034 119.762 118.734C153.707 123.018 188.248 125.16 222.937 125.744C296.634 127.107 370.182 122.726 443.581 119.707C517.427 116.591 591.422 114.936 665.416 112.405C684.324 111.723 703.083 110.944 721.843 109.873C725.118 109.678 725.118 106.465 721.545 106.27Z" fill="#ABD7D8"/>
</svg>
