<svg width="1239" height="1163" viewBox="0 0 1239 1163" fill="none" xmlns="http://www.w3.org/2000/svg">
<g opacity="0.24">
<path d="M-247.301 157.744C-181.918 128.092 -103.581 94.667 -33.319 128.987C-15.4602 137.711 0.503771 149.992 13.4947 165.037C26.8071 180.455 35.8472 198.641 42.9708 217.6C49.8109 235.799 55.2499 254.503 62.6113 272.509C69.8689 290.262 79.1965 306.749 91.6586 321.388C117.007 351.167 151.499 371.278 185.32 389.94C219.809 408.969 255.29 427.13 284.946 453.456C336.448 499.175 367.897 561.867 396.483 623.356C425.558 685.877 452.76 750.53 496.426 804.634C501.715 811.187 507.244 817.538 512.993 823.687C514.04 821.153 515.088 818.618 516.131 816.092C512.797 815.88 509.463 815.668 506.129 815.456C500.404 815.091 500.474 824.009 506.192 824.369C509.526 824.581 512.86 824.793 516.194 825.005C520.192 825.26 521.793 820.051 519.332 817.41C471.062 765.788 441.751 700.404 412.544 636.943C383.794 574.464 354.103 510.072 305.22 460.427C278.178 432.963 245.67 412.977 212.119 394.478C176.951 375.088 140.062 356.671 110.783 328.64C96.4302 314.898 84.6681 299.023 76.0716 281.091C67.4754 263.16 61.7749 244.041 55.2095 225.32C48.6552 206.627 41.2114 188.006 29.8355 171.663C18.4489 155.304 3.93475 141.301 -12.7564 130.411C-44.8273 109.489 -83.2003 102.553 -120.917 106.884C-157.622 111.1 -192.543 124.123 -226.261 138.678C-234.791 142.36 -243.266 146.167 -251.727 150.005C-256.96 152.378 -252.486 160.096 -247.301 157.744Z" fill="#4A9D9F"/>
<path d="M-222.911 93.1674C-119.506 55.5944 -1.14941 78.6481 79.7592 153.43C121.598 192.102 149.75 240.955 165.89 295.317C181.225 346.963 188.785 401.27 212.197 450.255C262.739 556.006 369.836 616.757 470.114 667.462C525.386 695.405 580.618 723.016 633.074 756.075C683.423 787.808 731.492 823.144 776.845 861.68C866.851 938.162 946.185 1027.23 1011.43 1125.69C1019.45 1137.81 1027.26 1150.07 1034.86 1162.44C1035.24 1163.05 1036.21 1162.5 1035.83 1161.89C973.911 1061.13 897.794 969.317 810.361 889.688C721.158 808.452 621.103 742.456 513.592 688.09C406.495 633.943 288.137 579.104 224.689 471.346C195.555 421.865 186.098 365.415 171.394 310.732C157.282 258.252 134.777 210.021 97.6499 169.764C26.0335 92.1107 -83.2301 58.2145 -186.305 81.2409C-198.837 84.0409 -211.135 87.7074 -223.202 92.0918C-223.872 92.3347 -223.587 93.4131 -222.911 93.1674Z" fill="#4A9D9F"/>
</g>
</svg>
