<svg width="1261" height="717" viewBox="0 0 1261 717" fill="none" xmlns="http://www.w3.org/2000/svg">
<g opacity="0.2">
<path d="M1557.45 166.67C1496.39 128.911 1422.96 85.7549 1348.89 110.82C1330.07 117.192 1312.66 127.335 1297.86 140.597C1282.69 154.189 1271.4 171.071 1261.91 188.965C1252.8 206.142 1245.02 223.998 1235.42 240.917C1225.95 257.598 1214.6 272.759 1200.37 285.686C1171.42 311.984 1134.65 327.525 1098.72 341.715C1062.08 356.184 1024.57 369.665 991.796 391.989C934.878 430.756 895.68 488.918 859.476 546.253C822.654 604.55 787.418 665.199 737.2 713.284C731.117 719.107 724.822 724.7 718.336 730.065C717.62 727.417 716.905 724.77 716.193 722.131C719.527 722.347 722.861 722.562 726.195 722.778C731.92 723.147 730.711 731.983 724.994 731.61C721.66 731.394 718.326 731.179 714.992 730.963C710.994 730.706 710.072 725.334 712.85 723.03C767.317 677.995 804.739 616.89 841.811 557.678C878.304 499.382 915.976 439.309 970.799 396.313C1001.13 372.528 1035.92 356.856 1071.56 342.794C1108.92 328.053 1147.85 314.498 1180.47 290.436C1196.46 278.639 1210.16 264.397 1220.97 247.709C1231.79 231.023 1239.88 212.788 1248.79 195.059C1257.67 177.357 1267.44 159.839 1280.81 145.082C1294.19 130.311 1310.37 118.276 1328.32 109.607C1362.8 92.9524 1401.74 90.9736 1438.6 100.086C1474.46 108.955 1507.43 126.331 1539.02 145.073C1547.01 149.814 1554.93 154.672 1562.83 159.559C1567.72 162.581 1562.29 169.664 1557.45 166.67Z" fill="#4A9D9F"/>
<path d="M1541.51 99.5071C1443.75 49.0361 1323.41 56.7861 1233.62 120.623C1187.18 153.635 1153.02 198.493 1130.07 250.348C1108.27 299.613 1093.83 352.51 1064.36 398.104C1000.73 496.535 886.746 543.112 780.815 580.595C722.426 601.251 664.12 621.582 607.872 647.671C553.883 672.714 501.695 701.622 451.792 734.051C352.756 798.413 262.696 876.622 185.409 965.94C175.906 976.933 166.598 988.095 157.477 999.403C157.023 999.958 156.135 999.285 156.589 998.729C230.867 906.705 318.087 825.361 414.973 757.549C513.82 688.37 621.484 635.693 735.058 595.502C848.193 555.475 972.585 516.2 1049.28 417.427C1084.49 372.072 1101.08 317.292 1122.65 264.935C1143.34 214.687 1171.82 169.724 1213.79 134.538C1294.74 66.667 1407.43 47.0022 1506.72 83.0035C1518.79 87.3809 1530.52 92.588 1541.93 98.4775C1542.57 98.8039 1542.15 99.8371 1541.51 99.5071Z" fill="#4A9D9F"/>
</g>
</svg>
