<svg width="1252" height="1064" viewBox="0 0 1252 1064" fill="none" xmlns="http://www.w3.org/2000/svg">
<g opacity="0.2">
<path d="M1533.57 164.02C1470.77 129.242 1395.35 89.6675 1322.57 118.266C1304.07 125.537 1287.18 136.504 1273.03 150.463C1258.53 164.769 1248.06 182.175 1239.45 200.504C1231.18 218.099 1224.26 236.309 1215.48 253.67C1206.83 270.787 1196.22 286.476 1182.63 300.073C1154.98 327.732 1118.99 345.025 1083.79 360.926C1047.89 377.141 1011.07 392.41 979.409 416.284C924.421 457.744 888.066 517.724 854.661 576.733C820.686 636.733 788.408 699.007 740.561 749.452C734.765 755.561 728.746 761.45 722.525 767.12C721.683 764.511 720.841 761.901 720.003 759.299C723.344 759.354 726.684 759.409 730.024 759.464C735.76 759.558 734.978 768.441 729.25 768.344C725.909 768.288 722.569 768.234 719.229 768.179C715.223 768.114 714.044 762.793 716.707 760.358C768.945 712.755 803.385 649.921 837.566 588.994C871.213 529.011 905.953 467.196 958.644 421.613C987.792 396.397 1021.79 379.07 1056.71 363.31C1093.32 346.79 1131.56 331.378 1162.98 305.774C1178.39 293.222 1191.38 278.337 1201.38 261.149C1211.38 243.962 1218.59 225.359 1226.63 207.222C1234.66 189.113 1243.56 171.146 1256.21 155.763C1268.87 140.366 1284.45 127.566 1301.96 118.044C1335.6 99.7504 1374.4 95.9009 1411.65 103.23C1447.9 110.364 1481.67 126.134 1514.12 143.335C1522.33 147.687 1530.47 152.158 1538.6 156.659C1543.63 159.443 1538.55 166.779 1533.57 164.02Z" fill="#4A9D9F"/>
<path d="M1514.42 97.7025C1414.34 51.9917 1294.52 65.5201 1207.9 133.602C1163.11 168.809 1131.14 215.258 1110.71 268.157C1091.3 318.414 1079.43 371.944 1052.18 418.903C993.356 520.279 881.749 572.284 777.743 614.819C720.416 638.259 663.155 661.371 608.227 690.135C555.504 717.746 504.767 749.131 456.481 783.921C360.655 852.972 274.462 935.422 201.559 1028.35C192.596 1039.79 183.836 1051.39 175.269 1063.12C174.843 1063.7 173.923 1063.07 174.35 1062.49C244.117 967.001 327.323 881.556 420.836 809.163C516.241 735.31 621.247 677.516 732.756 631.91C843.835 586.488 966.194 541.275 1038.05 438.929C1071.04 391.932 1084.97 336.418 1104 283.084C1122.25 231.898 1148.54 185.618 1188.76 148.455C1266.35 76.7689 1377.97 51.7066 1478.88 82.8909C1491.15 86.6827 1503.11 91.3197 1514.79 96.6536C1515.44 96.9492 1515.07 98.0014 1514.42 97.7025Z" fill="#4A9D9F"/>
</g>
</svg>
